<?xml version="1.0" standalone="no"?>
<!DOCTYPE svg PUBLIC "-//W3C//DTD SVG 20010904//EN"
 "http://www.w3.org/TR/2001/REC-SVG-20010904/DTD/svg10.dtd">
<svg version="1.0" xmlns="http://www.w3.org/2000/svg"
 width="500.000000pt" height="500.000000pt" viewBox="0 0 500.000000 500.000000"
 preserveAspectRatio="xMidYMid meet">

<g transform="translate(0.000000,500.000000) scale(0.100000,-0.100000)"
fill="#000000" stroke="none">
<path d="M0 2500 l0 -2500 2500 0 2500 0 0 2500 0 2500 -2500 0 -2500 0 0
-2500z m2970 995 l465 -465 92 0 c51 0 93 -2 93 -6 0 -3 -7 -37 -16 -76 l-16
-71 188 -188 189 -189 -174 -174 -174 -174 12 -45 c16 -67 17 -67 -46 -67 -53
-1 -56 -2 -39 -15 43 -33 120 -15 198 47 26 20 39 25 44 17 17 -27 -123 -109
-187 -109 -24 0 -51 10 -80 30 -24 16 -51 30 -61 30 -9 0 -18 5 -20 12 -3 7
-23 -6 -50 -30 -48 -44 -73 -54 -65 -24 3 9 8 31 11 47 6 27 5 28 -7 13 -8
-10 -21 -18 -29 -18 -9 0 -32 -7 -51 -15 -20 -8 -65 -15 -100 -15 -45 0 -68
-5 -77 -15 -25 -30 -87 -8 -101 34 -3 8 -28 0 -72 -24 -96 -49 -155 -49 -205
1 l-36 36 -35 -20 c-63 -35 -115 -45 -155 -28 -19 8 -41 24 -48 35 -19 32 -50
25 -93 -19 -22 -22 -44 -39 -50 -37 -5 2 -8 21 -7 41 2 21 0 36 -5 34 -94 -46
-127 -59 -165 -64 -55 -8 -112 9 -133 39 l-15 21 -69 -34 c-89 -42 -146 -44
-197 -5 l-35 27 -33 -30 -34 -29 459 -459 459 -459 491 490 c270 270 486 481
481 470 -6 -11 -227 -236 -492 -500 l-480 -480 -467 468 c-257 257 -473 467
-480 467 -15 0 -36 47 -28 60 2 4 -46 10 -108 13 -61 4 -123 8 -136 9 l-25 3
3 -140 c2 -126 1 -143 -17 -165 -12 -15 -25 -21 -35 -17 -40 15 -8 290 50 440
l31 77 -127 125 -126 124 217 218 c213 214 217 219 220 263 l3 45 46 3 45 3
464 464 c256 256 467 465 470 465 3 0 214 -209 470 -465z"/>
<path d="M2040 3485 l-454 -454 108 0 c60 0 110 -2 113 -4 3 -4 24 -213 89
-899 3 -38 10 -68 15 -68 5 0 9 205 9 485 l0 485 153 0 c83 0 170 -5 192 -11
51 -14 110 -73 124 -124 6 -24 11 -130 11 -257 l0 -217 25 -25 c20 -20 24 -32
19 -53 -15 -62 -86 -218 -114 -250 -45 -50 -40 -70 7 -33 36 28 60 25 104 -15
42 -37 66 -42 120 -23 l34 13 -35 5 -35 5 -56 450 c-31 248 -58 469 -61 493
l-6 42 93 0 94 0 5 -32 c3 -18 19 -163 36 -323 28 -262 40 -342 40 -274 0 28
47 525 55 587 l6 42 191 0 190 0 -3 -492 c-3 -460 -2 -493 14 -496 16 -3 17
29 17 492 l0 496 95 0 c69 0 95 -3 95 -12 1 -7 0 -94 0 -193 0 -98 1 -177 3
-175 3 3 24 88 47 189 l43 183 -459 459 c-252 253 -461 459 -464 459 -3 0
-210 -205 -460 -455z"/>
<path d="M2850 2487 l-55 -442 -47 -3 c-51 -3 -61 -15 -29 -32 33 -17 104 -11
151 13 l45 22 -3 440 c-2 242 -5 441 -6 442 -1 1 -26 -197 -56 -440z"/>
<path d="M1255 2700 l-200 -200 122 -122 c97 -97 125 -120 135 -110 16 16 45
15 51 0 2 -7 0 -24 -5 -37 -7 -19 -4 -29 11 -44 20 -20 20 -20 25 4 8 37 68
700 64 704 -2 3 -94 -86 -203 -195z"/>
<path d="M1621 2673 c-7 -104 -15 -216 -18 -250 l-6 -63 48 0 47 0 -5 33 c-3
17 -14 130 -24 250 -9 119 -20 217 -23 217 -4 0 -12 -84 -19 -187z"/>
<path d="M2118 2543 c-2 -175 0 -322 4 -327 4 -5 20 -5 40 0 l33 10 3 307 2
307 -26 10 c-56 22 -53 36 -56 -307z"/>
<path d="M3548 2721 l-35 -140 50 -206 51 -206 165 166 166 165 -181 181 -180
180 -36 -140z"/>
<path d="M3330 2306 c0 -182 1 -197 17 -194 13 2 19 -6 23 -29 l5 -33 28 23
27 22 -46 200 c-25 110 -48 202 -50 204 -2 2 -4 -84 -4 -193z"/>
<path d="M2401 2343 c0 -25 1 -26 9 -8 12 27 12 35 0 35 -5 0 -10 -12 -9 -27z"/>
<path d="M2342 2205 c-17 -37 -14 -45 4 -12 9 16 14 31 11 33 -2 2 -9 -7 -15
-21z"/>
<path d="M1300 2205 c-7 -9 -10 -18 -7 -21 3 -3 10 4 17 15 13 25 8 27 -10 6z"/>
<path d="M1578 2160 c-4 -44 -1 -47 28 -25 10 8 30 15 43 15 20 0 21 -2 11
-15 -7 -8 -18 -15 -24 -15 -16 0 -66 -52 -66 -68 0 -7 -4 -12 -10 -12 -5 0
-10 -9 -10 -20 0 -37 28 -20 60 35 17 30 35 55 40 55 5 0 13 -15 20 -34 17
-51 44 -71 99 -70 25 0 60 8 76 17 30 16 30 16 -47 17 l-77 0 -5 43 c-3 23 -7
58 -8 77 l-3 35 -61 3 -62 3 -4 -41z"/>
<path d="M1301 2144 c-18 -25 -29 -50 -25 -54 5 -5 33 -12 62 -16 l52 -7 0 39
c0 41 -22 84 -43 84 -7 -1 -27 -21 -46 -46z"/>
<path d="M3020 2068 c-12 -22 -12 -22 6 -6 10 10 15 20 12 24 -4 3 -12 -5 -18
-18z"/>
<path d="M2000 2030 c20 -13 67 -13 75 0 4 6 -12 10 -42 10 -35 0 -44 -3 -33
-10z"/>
<path d="M2110 2030 c0 -12 27 -12 55 0 16 7 13 9 -17 9 -21 1 -38 -3 -38 -9z"/>
<path d="M3002 2028 c5 -15 48 -18 48 -3 0 6 -11 11 -26 13 -18 3 -25 0 -22
-10z"/>
<path d="M1216 1889 c-9 -88 -8 -135 3 -123 13 13 26 184 14 184 -6 0 -13 -28
-17 -61z"/>
</g>
</svg>
