<?xml version="1.0" standalone="no"?>
<!DOCTYPE svg PUBLIC "-//W3C//DTD SVG 20010904//EN"
 "http://www.w3.org/TR/2001/REC-SVG-20010904/DTD/svg10.dtd">
<svg version="1.0" xmlns="http://www.w3.org/2000/svg"
 width="500.000000pt" height="500.000000pt" viewBox="0 0 500.000000 500.000000"
 preserveAspectRatio="xMidYMid meet">

<g transform="translate(0.000000,500.000000) scale(0.100000,-0.100000)"
fill="#000000" stroke="none">
<path d="M1390 2926 c0 -9 7 -16 15 -16 9 0 26 -22 40 -52 22 -48 23 -55 9
-73 -91 -123 -162 -259 -189 -361 -28 -110 -35 -104 115 -104 72 0 130 4 130
9 0 5 -6 14 -14 20 -15 12 -66 114 -66 131 0 6 29 10 65 10 64 0 65 0 79 -33
18 -44 71 -104 110 -124 58 -30 149 -19 199 25 27 24 20 33 -21 26 -59 -9 -58
-12 -151 292 -39 129 -78 182 -163 223 -78 37 -158 51 -158 27z m124 -282 c20
-67 36 -124 36 -128 0 -3 -29 -6 -64 -6 -58 0 -64 2 -70 23 -10 36 -7 111 6
148 11 34 47 93 53 87 2 -2 19 -57 39 -124z"/>
<path d="M3050 2933 c-57 -21 -82 -89 -55 -146 19 -41 50 -57 111 -57 63 0
104 40 104 100 0 52 -13 76 -50 95 -29 15 -81 19 -110 8z"/>
<path d="M2200 2856 l0 -75 -44 20 c-59 26 -122 13 -191 -39 -194 -147 -102
-438 141 -444 50 -2 69 4 128 35 38 20 76 37 85 37 26 0 61 -29 61 -51 0 -10
4 -19 10 -19 6 0 11 79 12 202 3 181 5 203 20 206 9 2 26 -6 38 -18 19 -19 20
-30 18 -138 -3 -130 6 -158 61 -205 68 -57 186 -63 260 -14 86 57 154 206 155
342 1 121 9 115 -146 115 -94 -1 -128 -4 -116 -11 10 -5 30 -29 46 -52 83
-122 102 -308 40 -374 -29 -32 -73 -30 -94 3 -15 21 -16 39 -9 127 17 203 9
248 -48 291 -40 30 -111 27 -176 -7 l-51 -26 0 29 c0 37 -21 58 -68 65 -62 11
-92 26 -98 51 -3 13 -12 24 -20 24 -11 0 -14 -18 -14 -74z m-39 -99 l34 -23 3
-169 c3 -194 0 -215 -30 -215 -53 0 -117 113 -140 248 -25 150 37 224 133 159z"/>
<path d="M3240 2625 l0 -305 68 0 c114 0 167 54 179 185 6 68 15 79 34 44 8
-15 8 -33 0 -64 -18 -73 -14 -103 18 -136 25 -24 38 -29 78 -29 26 0 66 9 88
19 43 20 95 64 95 81 0 15 -16 12 -30 -5 -28 -34 -56 -16 -104 67 -22 40 -37
53 -96 80 -38 18 -68 38 -66 43 6 20 39 16 90 -11 48 -25 56 -26 84 -15 18 8
37 27 47 48 20 41 33 183 17 183 -6 0 -13 -14 -17 -31 -10 -44 -30 -46 -75 -5
-49 44 -79 52 -118 32 -41 -21 -52 -59 -62 -213 -9 -156 -30 -214 -86 -241
-47 -22 -105 -8 -118 30 -14 40 6 73 61 102 94 47 112 87 113 239 0 100 -12
122 -77 132 -58 10 -82 22 -95 50 -6 14 -15 25 -20 25 -4 0 -8 -137 -8 -305z"/>
<path d="M3000 2531 l0 -211 100 0 100 0 0 164 c0 196 -1 197 -104 221 -38 8
-76 20 -83 26 -11 10 -13 -26 -13 -200z"/>
<path d="M1760 2142 c0 -4 17 -6 38 -4 58 5 62 10 10 11 -27 1 -48 -3 -48 -7z"/>
<path d="M2026 2134 c-4 -9 -4 -19 -1 -22 3 -3 5 0 5 7 0 7 5 9 10 6 6 -3 10
-2 10 4 0 18 -18 21 -24 5z"/>
<path d="M2239 2133 c-12 -16 -12 -17 1 -7 8 7 24 14 35 17 19 4 19 5 -1 6
-12 0 -28 -7 -35 -16z"/>
<path d="M2892 2143 c-23 -9 -44 -64 -38 -98 7 -36 38 -70 58 -62 9 4 7 6 -4
6 -19 1 -48 49 -48 79 0 30 38 72 66 72 77 0 89 -125 14 -153 -12 -4 -11 -6 3
-6 30 -2 57 35 57 79 0 64 -53 105 -108 83z"/>
<path d="M2306 2127 c3 -10 9 -15 12 -12 3 3 0 11 -7 18 -10 9 -11 8 -5 -6z"/>
<path d="M2463 2060 c0 -47 2 -66 4 -42 l4 42 49 0 49 0 4 -42 c2 -24 4 -5 4
42 0 47 -2 68 -4 48 l-4 -38 -49 0 -49 0 -4 38 c-2 20 -4 -1 -4 -48z"/>
<path d="M2723 2060 c0 -47 2 -66 4 -42 2 23 2 61 0 85 -2 23 -4 4 -4 -43z"/>
<path d="M3132 2058 l2 -83 5 80 6 80 45 -77 c25 -43 48 -78 53 -78 4 0 6 37
5 83 l-2 82 -5 -73 -6 -73 -40 67 c-57 95 -65 94 -63 -8z"/>
<path d="M2050 2108 c0 -4 4 -18 10 -32 9 -24 8 -26 -21 -26 -29 0 -31 2 -25
28 7 30 -7 12 -18 -23 -5 -18 -2 -20 39 -17 41 4 45 6 39 26 -8 25 -23 54 -24
44z"/>
<path d="M2226 2097 c4 -11 26 -27 50 -38 50 -21 60 -53 22 -69 -18 -8 -19 -9
-4 -7 24 3 41 29 33 51 -4 9 -24 24 -44 32 -21 9 -43 23 -50 33 -12 14 -12 14
-7 -2z"/>
<path d="M1760 2062 c0 -4 17 -6 38 -4 58 5 62 10 10 11 -27 1 -48 -3 -48 -7z"/>
<path d="M2081 2025 c1 -19 18 -51 18 -35 0 8 -4 22 -9 30 -5 8 -9 11 -9 5z"/>
<path d="M1976 2005 c-9 -26 -7 -32 5 -12 6 10 9 21 6 23 -2 3 -7 -2 -11 -11z"/>
<path d="M2220 2014 c0 -17 27 -37 42 -31 8 4 7 6 -4 6 -9 1 -22 9 -27 19 -6
9 -11 12 -11 6z"/>
</g>
</svg>
